<svg xmlns="http://www.w3.org/2000/svg" xmlns:xlink="http://www.w3.org/1999/xlink" viewBox="0 0 250 312.93"><defs><style>.cls-1{fill:#bdccd4;}.cls-2{fill:#f2f2f2;}.cls-3{fill:url(#linear-gradient);}.cls-4{fill:#999;}.cls-10,.cls-5,.cls-6{fill:none;}.cls-5,.cls-6,.cls-8{stroke:#65a7df;opacity:0.96;}.cls-10,.cls-5,.cls-6,.cls-8,.cls-9{stroke-miterlimit:10;}.cls-5{stroke-width:11px;}.cls-6{stroke-width:8px;}.cls-7,.cls-8{fill:#65a7df;}.cls-9{fill:gray;}.cls-10,.cls-9{stroke:#999;stroke-width:17px;}.cls-11{fill:#fff;}</style><linearGradient id="linear-gradient" y1="287.93" x2="250" y2="287.93" gradientUnits="userSpaceOnUse"><stop offset="0.38" stop-color="#3fa9f5"/><stop offset="0.51" stop-color="#3fa9f5"/></linearGradient></defs><g id="Layer_1" data-name="Layer 1"><path class="cls-1" d="M463.79,594.48c-2-16.34-18.84-29.1-39.29-29.1s-37.27,12.76-39.29,29.1H385V666h79V594.48Z" transform="translate(-299.5 -403.57)"/><rect class="cls-2" x="205" y="113.93" width="33" height="149"/><rect class="cls-2" x="11.5" y="114.43" width="33" height="149"/><rect class="cls-3" y="262.93" width="250" height="50"/><rect class="cls-4" x="11.5" y="95.24" width="33" height="19.19"/><polygon class="cls-2" points="44.5 115.43 11.5 115.43 27.5 99.43 28.5 99.43 44.5 115.43"/><polygon class="cls-4" points="44.52 95.24 11.52 95.24 27.52 83.43 28.52 83.43 44.52 95.24"/><rect class="cls-4" x="204.51" y="95.11" width="33" height="19.19"/><polygon class="cls-2" points="237.51 115.31 204.51 115.31 220.51 99.31 221.51 99.31 237.51 115.31"/><polygon class="cls-4" points="237.52 95.11 204.52 95.11 220.52 83.31 221.52 83.31 237.52 95.11"/><polygon class="cls-5" points="165.5 126.43 81.52 126.43 123.2 68.55 123.81 68.55 165.5 126.43"/><polygon class="cls-6" points="81.02 89.2 167.01 89.2 123.32 147.54 122.71 147.54 81.02 89.2"/><polygon class="cls-7" points="129.5 66.78 117.97 66.78 123.56 59.11 123.91 59.11 129.5 66.78"/><polygon class="cls-8" points="119.69 149.53 126.22 149.53 123.05 153.43 122.85 153.43 119.69 149.53"/><line class="cls-9" x1="28" y1="94.93" x2="120" y2="13.43"/><line class="cls-10" x1="215" y1="92.93" x2="120" y2="13.43"/><polygon class="cls-4" points="131.17 14.12 108.11 14.12 119.29 0 119.98 0 131.17 14.12"/><polygon class="cls-11" points="132.55 39.56 109.49 39.56 120.67 25.44 121.37 25.44 132.55 39.56"/></g></svg>