<svg id="Layer_1" data-name="Layer 1" xmlns="http://www.w3.org/2000/svg" viewBox="0 0 151.62 207.11"><defs><style>.cls-1{fill:#c69c6d;}.cls-2{fill:none;}.cls-2,.cls-3{stroke:#8c6239;stroke-miterlimit:10;stroke-width:6px;}.cls-3{fill:#8c6239;}</style></defs><rect class="cls-1" x="13.42" y="28.56" width="125" height="177" rx="12"/><rect class="cls-1" x="13.42" y="139.56" width="125" height="66"/><path class="cls-2" d="M467,197c-.87-10.51,6.65-19.18,15-20,9.39-.91,19.36,8.07,18.59,20" transform="translate(-407.58 -168.44)"/><polyline class="cls-3" points="51.42 28.55 47.42 3.56 20.45 8.49 25.42 28.55"/><polyline class="cls-3" points="101.86 28.55 104.42 3.56 130.84 8.55 126.42 28.55"/><path class="cls-3" d="M546,374l5.92-9.81V350A40.53,40.53,0,0,0,556,336a41.51,41.51,0,0,0-4.08-22.25V308H546" transform="translate(-407.58 -168.44)"/><path class="cls-3" d="M420.78,373.83l-5.92-9.8V349.87a40.53,40.53,0,0,1-4.08-14,41.51,41.51,0,0,1,4.08-22.25v-5.75h5.92" transform="translate(-407.58 -168.44)"/><path class="cls-3" d="M433,374" transform="translate(-407.58 -168.44)"/><line class="cls-3" x1="10.42" y1="203.56" x2="140.42" y2="203.56"/></svg>