<svg id="Layer_2" data-name="Layer 2" xmlns="http://www.w3.org/2000/svg" viewBox="0 0 739.94 571.6"><defs><style>.cls-1{fill:#8c6239;stroke:#ccc;stroke-miterlimit:10;stroke-width:4px;}</style></defs><path class="cls-1" d="M297.5,565.5l77,86a845.11,845.11,0,0,1,145-209L720,328l4,5,120-94v-4l85-49-4-5,107-59-9-12-13,6L990,86l-12.42,6L983,124v5l-67,40-33-15-68,39-6-5-88,51-4-5-47,29,3,6,3,4L501,374l-4,21-3,21-68,45-22,1A274.57,274.57,0,0,0,297.5,565.5Z" transform="translate(-295.04 -83.44)"/><circle class="cls-1" cx="178.96" cy="374.56" r="11"/><path class="cls-1" d="M497,395,698,283l22,45" transform="translate(-295.04 -83.44)"/><polyline class="cls-1" points="387.96 204.65 374.96 179.56 421.96 150.56 439.96 187.56 407.46 204.65"/><polyline class="cls-1" points="616.83 87.48 590.96 99.56 586.96 93.56 526.79 125 519.96 109.56"/><polyline class="cls-1" points="548.96 155.56 535.96 133.56 443.96 184.56"/><path class="cls-1" d="M836,217l80-48,13,17a33.58,33.58,0,0,1-10,6,32.23,32.23,0,0,1-9,2c-6,.51-23.92,10.48-66,41" transform="translate(-295.04 -83.44)"/><path class="cls-1" d="M683,349.13a142.38,142.38,0,0,0,128.21,61.34Q809.11,442.74,807,475a195.41,195.41,0,0,1-177.09-95.55" transform="translate(-295.04 -83.44)"/><line class="cls-1" x1="393.52" y1="273.21" x2="341.06" y2="305.74"/><line class="cls-1" x1="501.13" y1="328.72" x2="496.46" y2="391.63"/><path class="cls-1" d="M581,425c8,16,4,10,4,10l-4-10-6.29-14,45.35-21.78,9.85,29.87L595,443.62s-10.33-5.29-11-2.62h0c-2,16.77-2,22-2,22a96.75,96.75,0,0,0,1,13c2.63,20,10.6,51.51,12,57a34,34,0,0,1-42,13,161.89,161.89,0,0,1-14-78l-9-7-10.5-18.5" transform="translate(-295.04 -83.44)"/><path class="cls-1" d="M596.61,400.45a23.14,23.14,0,0,0,21.68,11.71L612,419a19.43,19.43,0,0,1-14,2,19.68,19.68,0,0,1-13.87-14.55Z" transform="translate(-295.04 -83.44)"/><line class="cls-1" x1="439.96" y1="177.6" x2="526.79" y2="125"/></svg>