<svg id="Layer_1" enable-background="new 0 0 512 512" height="512" viewBox="0 0 512 512" width="512" xmlns="http://www.w3.org/2000/svg"><g><path d="m284.148 266.851h-174.783v98.514c0 80.984 65.651 146.635 146.635 146.635z" fill="#724435"/><path d="m256 266.851v245.149c80.984 0 146.635-65.651 146.635-146.635v-98.514z" fill="#4f2f25"/><g><path d="m287.703 166.6h-178.338v100.251c0 28.824 23.366 52.19 52.19 52.19h48.208c25.536 0 46.238-20.702 46.238-46.238z" fill="#f0cfa3"/><path d="m256 166.6v106.203c0 25.536 20.701 46.238 46.238 46.238h48.208c28.824 0 52.19-23.366 52.19-52.19v-100.251z" fill="#edb986"/><g><g><path d="m194.297 218.818h30v30h-30z" fill="#453d81"/></g><g><path d="m287.703 218.818h30v30h-30z" fill="#38336b"/></g></g></g><g><path d="m138.637 0-29.272 166.6h163.859l-17.224-166.6z" fill="#524798"/><path d="m373.363 0h-117.363v166.6h146.635z" fill="#453d81"/></g><g><path d="m44.988 156.838v30h211.012l17.224-15-17.224-15z" fill="#453d81"/></g><path d="m256 156.838h211.012v30h-211.012z" fill="#38336b"/></g></svg>