<?xml version="1.0" encoding="iso-8859-1"?>
<!-- Generator: Adobe Illustrator 19.0.0, SVG Export Plug-In . SVG Version: 6.00 Build 0)  -->
<svg version="1.1" id="Capa_1" xmlns="http://www.w3.org/2000/svg" xmlns:xlink="http://www.w3.org/1999/xlink" x="0px" y="0px"
	 viewBox="0 0 512 512" style="enable-background:new 0 0 512 512;" xml:space="preserve">
<path style="fill:#FEC108;" d="M349.863,156.16c0,1.28,0,2.389-0.085,3.584v0.085c-0.297,5.219-1.126,10.394-2.475,15.445
	c-0.341,1.195-0.682,2.389-0.938,3.584c-4.963,19.617-6.976,39.865-5.973,60.075c0.171,3.328,0.341,6.741,0.682,10.069
	c0.171,2.048,0.256,4.181,0.256,6.315c-1.566,14.613-7.927,28.296-18.091,38.912c-10.61,12.499-22.446,23.906-35.328,34.048
	c-10.157,8.274-23.128,12.281-36.181,11.178c-1.451-0.171-2.901-0.341-4.352-0.597c-1.44-0.222-2.866-0.536-4.267-0.938
	c-1.416-0.348-2.812-0.776-4.181-1.28c-5.389-1.923-10.41-4.751-14.848-8.363c-12.882-10.142-24.718-21.548-35.328-34.048
	c-10.163-10.616-16.525-24.299-18.091-38.912c0-2.133,0.085-4.267,0.256-6.315c0.341-3.328,0.512-6.741,0.682-10.069
	c1.003-20.21-1.011-40.458-5.973-60.075c-0.256-1.195-0.597-2.389-0.938-3.584c-1.349-5.051-2.178-10.226-2.474-15.445v-0.085
	c-0.085-1.195-0.085-2.304-0.085-3.584c-0.017-7.778,1.253-15.505,3.755-22.869c0.597-1.877,1.366-3.755,2.133-5.632
	c0.597-1.451,1.28-2.901,2.048-4.351c0.108-0.301,0.251-0.587,0.426-0.853c0.489-0.994,1.031-1.963,1.622-2.901
	c0.768-1.517,1.653-2.972,2.645-4.352c0.869-1.432,1.839-2.801,2.901-4.096c0.63-0.894,1.314-1.749,2.048-2.56
	c0.426-0.597,0.938-1.195,1.451-1.792c0.938-1.11,1.877-2.133,2.901-3.158c5.634-5.903,12.068-10.988,19.114-15.104
	c1.707-1.025,3.414-2.048,5.206-2.901c1.705-0.945,3.473-1.772,5.291-2.474c1.696-0.826,3.434-1.567,5.206-2.219
	c1.451-0.512,2.901-1.025,4.437-1.451c5.142-1.73,10.424-3.014,15.787-3.84c1.025-0.171,2.048-0.341,3.072-0.426
	c2.474-0.341,4.949-0.597,7.51-0.768c2.048-0.085,4.181-0.171,6.315-0.171c42.753,0,78.848,24.917,90.112,59.05
	C348.612,140.656,349.88,148.383,349.863,156.16z"/>
<path style="fill:#FFECB3;" d="M315.73,156.16c0,1.28,0,2.389-0.085,3.584v0.085c-0.297,5.219-1.126,10.394-2.474,15.445
	c-0.341,1.195-0.682,2.389-0.938,3.584c-4.963,19.617-6.976,39.865-5.973,60.075c0.171,3.328,0.341,6.741,0.682,10.069
	c0.171,2.048,0.256,4.181,0.256,6.315c-1.566,14.613-7.927,28.296-18.091,38.912c-10.61,12.499-22.446,23.906-35.328,34.048
	c-4.416,3.643-9.444,6.474-14.848,8.363c-5.389-1.923-10.41-4.751-14.848-8.363c-12.882-10.142-24.718-21.548-35.328-34.048
	c-10.163-10.616-16.525-24.299-18.091-38.912c0-2.133,0.085-4.267,0.256-6.315c0.341-3.328,0.512-6.741,0.682-10.069
	c1.003-20.21-1.011-40.458-5.973-60.075c-0.256-1.195-0.597-2.389-0.938-3.584c-1.349-5.051-2.178-10.226-2.474-15.445v-0.085
	c-0.085-1.195-0.085-2.304-0.085-3.584c-0.017-7.778,1.253-15.505,3.755-22.869c0.597-1.877,1.366-3.755,2.133-5.632
	c0.597-1.451,1.28-2.901,2.048-4.351c0.108-0.301,0.251-0.587,0.426-0.853c0.489-0.994,1.031-1.963,1.622-2.901
	c0.768-1.517,1.653-2.972,2.645-4.352c0.869-1.432,1.839-2.801,2.901-4.096c0.63-0.894,1.314-1.749,2.048-2.56
	c0.426-0.597,0.938-1.195,1.451-1.792c0.938-1.11,1.877-2.133,2.901-3.158c5.634-5.903,12.068-10.988,19.114-15.104
	c1.707-1.025,3.414-2.048,5.206-2.901c1.705-0.945,3.473-1.772,5.291-2.474c1.696-0.826,3.434-1.567,5.206-2.219
	c1.451-0.512,2.901-1.025,4.437-1.451c5.142-1.73,10.424-3.014,15.787-3.84c33.067,4.325,61.073,26.493,72.875,57.686
	C314.478,140.656,315.746,148.383,315.73,156.16z"/>
<path d="M230.397,204.8h-34.133c-4.713,0-8.533-3.82-8.533-8.533s3.82-8.533,8.533-8.533h34.133c4.713,0,8.533,3.82,8.533,8.533
	S235.11,204.8,230.397,204.8z"/>
<path d="M315.73,204.8h-34.133c-4.713,0-8.533-3.82-8.533-8.533s3.82-8.533,8.533-8.533h34.133c4.713,0,8.533,3.82,8.533,8.533
	S320.443,204.8,315.73,204.8z"/>
<path d="M213.33,221.867c-4.71,0.003-8.531-3.813-8.533-8.524c0-0.003,0-0.006,0-0.01v-17.066c0-4.713,3.82-8.533,8.533-8.533
	c4.713,0,8.533,3.82,8.533,8.533v17.066c0.003,4.71-3.813,8.531-8.524,8.533C213.337,221.867,213.334,221.867,213.33,221.867z"/>
<path d="M298.664,221.867c-4.71,0.003-8.531-3.813-8.533-8.524c0-0.003,0-0.006,0-0.01v-17.066c0-4.713,3.82-8.533,8.533-8.533
	c4.713,0,8.533,3.82,8.533,8.533v17.066c0.003,4.71-3.813,8.531-8.524,8.533C298.67,221.867,298.667,221.867,298.664,221.867z"/>
<path d="M163.83,179.884c-3.978-0.002-7.426-2.755-8.308-6.633c-1.009-4.279-1.622-8.642-1.833-13.033
	c-0.083-1.183-0.091-2.566-0.091-4.059c-0.001-7.423,1.029-14.81,3.058-21.95c1.273-4.537,5.984-7.181,10.52-5.908
	c4.537,1.273,7.181,5.984,5.908,10.52c-0.003,0.012-0.007,0.025-0.01,0.037c-1.597,5.628-2.408,11.45-2.409,17.301
	c0,1.075-0.008,2.075,0.066,3.083c0.164,3.439,0.641,6.856,1.425,10.209c1.048,4.593-1.824,9.167-6.417,10.217
	C165.112,179.812,164.472,179.886,163.83,179.884z"/>
<path d="M171.772,240.301h-0.134c-4.713-0.074-8.473-3.954-8.4-8.667c0.158-10.778-0.578-21.551-2.2-32.209
	c-0.72-4.656,2.472-9.013,7.128-9.733c4.656-0.72,9.013,2.472,9.733,7.128c0.002,0.012,0.004,0.026,0.006,0.038
	c1.772,11.593,2.575,23.315,2.4,35.042C180.229,236.56,176.432,240.299,171.772,240.301z"/>
<path d="M348.164,179.884c-0.642,0.002-1.283-0.072-1.908-0.217c-4.593-1.05-7.465-5.623-6.417-10.217
	c0.77-3.284,1.244-6.631,1.416-10c0.084-1.216,0.076-2.217,0.076-3.291c0-5.85-0.811-11.672-2.409-17.299
	c-1.292-4.531,1.334-9.252,5.864-10.544c4.53-1.292,9.252,1.334,10.544,5.864c0.003,0.009,0.005,0.02,0.008,0.029
	c2.03,7.139,3.059,14.527,3.058,21.95c0,1.491-0.008,2.875-0.1,4.267c-0.219,4.321-0.83,8.614-1.825,12.825
	C355.589,177.128,352.141,179.881,348.164,179.884z"/>
<path d="M340.23,240.809c-3.235,0.003-6.195-1.823-7.641-4.717c-0.622-1.311-0.931-2.749-0.9-4.2
	c-0.171-11.724,0.633-23.442,2.4-35.033c0.697-4.659,5.039-7.873,9.698-7.176c4.659,0.697,7.873,5.039,7.176,9.698
	c-0.002,0.015-0.004,0.03-0.007,0.045c-1.622,10.657-2.358,21.43-2.2,32.209v0.349c0.159,4.712-3.532,8.661-8.244,8.82
	C340.418,240.807,340.324,240.809,340.23,240.809L340.23,240.809z"/>
<path style="fill:#37474F;" d="M338.088,91.307c-27.172-4.068-54.615-6.065-82.09-5.973c-3.84,0-7.595,0.085-11.436,0.171h-1.365
	c-23.199,0.425-46.345,2.363-69.29,5.803c-62.549,9.728-105.643,30.122-105.643,53.76c0,19.541,29.354,36.779,74.667,47.701
	c8.363,2.048,17.237,3.84,26.539,5.376c-0.951-6.489-2.233-12.927-3.841-19.285c-0.255-1.195-0.596-2.389-0.937-3.584
	c-0.375-1.287-0.661-2.599-0.854-3.925l3.414-0.682v-0.085c6.487-15.047,21.164-24.921,37.547-25.259
	c13.701,0.353,27.156-3.684,38.4-11.52c4.838-3.655,8.514-8.635,10.581-14.336h4.437c7.679,21.248,34.475,25.856,48.982,25.856
	c16.383,0.338,31.059,10.211,37.547,25.259v0.085l3.414,0.682c-0.194,1.326-0.479,2.638-0.854,3.925
	c-0.341,1.195-0.682,2.389-0.937,3.584c-1.196,4.608-2.133,9.301-2.902,13.91c-0.426,1.792-0.683,3.584-0.938,5.376
	c60.075-9.984,101.206-29.952,101.206-53.078C443.73,121.429,400.637,101.035,338.088,91.307z M260.351,86.134
	c2.711,0.14,5.361,0.326,8.031,0.502C265.713,86.46,263.058,86.273,260.351,86.134L260.351,86.134z M276.254,87.191
	c2.487,0.198,4.943,0.413,7.388,0.642C281.198,87.607,278.734,87.392,276.254,87.191L276.254,87.191z M292.338,88.723
	c1.996,0.22,4.005,0.429,5.969,0.669C296.345,89.153,294.334,88.942,292.338,88.723L292.338,88.723z"/>
<path style="fill:#607D8B;" d="M418.13,145.067c0,19.541-29.354,36.779-74.667,47.701c0.768-4.608,1.707-9.301,2.902-13.91
	c0.255-1.195,0.596-2.389,0.937-3.584c0.375-1.287,0.661-2.599,0.854-3.925l-3.414-0.682v-0.085
	c-6.487-15.047-21.164-24.921-37.547-25.259c-14.507,0-41.302-4.608-48.982-25.856h-4.437c-2.067,5.701-5.743,10.681-10.581,14.336
	c-11.245,7.836-24.699,11.872-38.4,11.52c-16.383,0.338-31.059,10.211-37.547,25.259v0.085l-3.414,0.682
	c0.194,1.326,0.479,2.638,0.854,3.925c0.341,1.195,0.682,2.389,0.937,3.584c1.608,6.359,2.89,12.796,3.84,19.285
	c-9.301-1.536-18.176-3.328-26.539-5.376c-45.313-10.922-74.667-28.16-74.667-47.701c0-23.637,43.094-44.032,105.643-53.76
	c22.946-3.439,46.093-5.378,69.29-5.803h1.365c5.12,0.085,10.241,0.341,15.274,0.597c18.603,0.938,36.352,2.73,52.65,5.206
	C375.036,101.035,418.13,121.429,418.13,145.067z"/>
<path d="M342.522,206.675c-4.713,0-8.533-3.821-8.532-8.534c0-0.415,0.03-0.83,0.091-1.241c0.995-6.774,2.333-13.494,4.009-20.133
	c0.041-0.192,0.083-0.392,0.134-0.6c-0.585-0.693-1.055-1.475-1.392-2.317c-5.016-11.971-16.656-19.823-29.633-19.991
	c-18.275,0-39.633-5.674-51.2-20.825c-11.566,15.15-32.925,20.825-51.2,20.825c-13.097,0.187-24.817,8.172-29.783,20.292
	c-0.329,0.716-0.749,1.384-1.25,1.992c0.066,0.3,0.142,0.609,0.208,0.908c1.648,6.546,2.964,13.171,3.941,19.85
	c0.686,4.662-2.536,8.997-7.199,9.683c-0.877,0.129-1.769,0.12-2.643-0.025c-68.85-11.442-108.342-33.859-108.342-61.491
	c0-27.95,42.192-51.2,112.866-62.191c27.605-4.146,55.486-6.177,83.4-6.074c27.914-0.102,55.795,1.929,83.4,6.074
	c70.675,10.992,112.867,34.241,112.867,62.191c0,27.634-39.491,50.05-108.342,61.491
	C343.459,206.635,342.99,206.673,342.522,206.675z M255.997,93.867c-27.039-0.102-54.045,1.862-80.784,5.875
	c-67.617,10.508-98.416,30.867-98.416,45.325c0,13.083,25.792,31.392,82.1,42.483c-0.475-2.217-0.989-4.416-1.542-6.6
	c-0.283-1.292-0.584-2.308-0.867-3.326c-0.502-1.717-0.875-3.47-1.117-5.242c-0.517-4.214,2.143-8.167,6.241-9.275
	c8.407-16.097,25.025-26.224,43.183-26.317c3.442,0,33.85-0.567,40.959-20.225c1.223-3.38,4.431-5.633,8.025-5.634h4.433
	c3.594,0.001,6.803,2.253,8.025,5.634c7.108,19.659,37.517,20.225,40.959,20.225c18.159,0.093,34.777,10.22,43.183,26.317
	c4.098,1.107,6.759,5.061,6.241,9.275c-0.229,1.704-0.583,3.389-1.058,5.042c-0.341,1.216-0.642,2.234-0.859,3.242
	c-0.584,2.308-1.12,4.603-1.608,6.883c56.309-11.092,82.1-29.4,82.1-42.484c0-14.458-30.8-34.817-98.416-45.325
	C310.041,95.729,283.035,93.765,255.997,93.867z"/>
<path d="M169.555,206.675h-0.083c-4.713-0.023-8.514-3.863-8.492-8.575c0.023-4.712,3.863-8.514,8.575-8.492
	c4.712,0.023,8.514,3.863,8.492,8.575C178.023,202.863,174.235,206.652,169.555,206.675z"/>
<path d="M342.522,206.675h-0.083c-4.713-0.023-8.514-3.863-8.492-8.575c0.023-4.713,3.863-8.514,8.575-8.492
	c4.713,0.023,8.514,3.863,8.492,8.575C350.99,202.863,347.202,206.652,342.522,206.675z"/>
<path style="fill:#37474F;" d="M338.088,91.307c-11.007-1.707-22.699-3.072-34.816-4.096c-15.104-1.195-30.891-1.877-47.275-1.877
	c-5.802,0-11.436,0.085-17.066,0.256c-21.771,0.579-43.486,2.489-65.024,5.718l0.682-4.096l5.973-35.925
	c4.162-24.663,25.507-42.726,50.518-42.752h49.833c25.011,0.026,46.357,18.09,50.518,42.752L338.088,91.307z"/>
<path style="fill:#607D8B;" d="M303.954,91.307c-21.538-3.229-43.253-5.138-65.024-5.718c-5.632-0.171-11.264-0.256-17.066-0.256
	c-16.383,0-32.17,0.682-47.275,1.877l5.973-35.925c4.162-24.663,25.507-42.726,50.518-42.752h15.699
	c25.011,0.026,46.357,18.09,50.518,42.752l5.973,35.925L303.954,91.307z"/>
<path id="SVGCleanerId_0" d="M338.089,99.842c-0.438,0-0.875-0.034-1.309-0.1c-26.739-4.013-53.745-5.977-80.784-5.875
	c-27.039-0.102-54.045,1.862-80.784,5.875c-4.658,0.722-9.018-2.47-9.74-7.127c-0.139-0.897-0.134-1.811,0.015-2.705l6.658-40.025
	C176.936,21.073,201.874-0.036,231.08,0h49.833c29.198-0.037,54.133,21.058,58.933,49.859l6.658,40.05
	c0.774,4.649-2.368,9.044-7.018,9.818C339.025,99.803,338.557,99.842,338.089,99.842L338.089,99.842z M231.08,17.067
	c-20.865-0.023-38.679,15.06-42.1,35.642l-4.75,28.516c23.803-3.008,47.775-4.487,71.767-4.425
	c23.992-0.061,47.964,1.416,71.767,4.425l-4.75-28.542c-3.431-20.572-21.244-35.641-42.1-35.616H231.08z"/>
<g>
	<path id="SVGCleanerId_0_1_" d="M338.089,99.842c-0.438,0-0.875-0.034-1.309-0.1c-26.739-4.013-53.745-5.977-80.784-5.875
		c-27.039-0.102-54.045,1.862-80.784,5.875c-4.658,0.722-9.018-2.47-9.74-7.127c-0.139-0.897-0.134-1.811,0.015-2.705l6.658-40.025
		C176.936,21.073,201.874-0.036,231.08,0h49.833c29.198-0.037,54.133,21.058,58.933,49.859l6.658,40.05
		c0.774,4.649-2.368,9.044-7.018,9.818C339.025,99.803,338.557,99.842,338.089,99.842L338.089,99.842z M231.08,17.067
		c-20.865-0.023-38.679,15.06-42.1,35.642l-4.75,28.516c23.803-3.008,47.775-4.487,71.767-4.425
		c23.992-0.061,47.964,1.416,71.767,4.425l-4.75-28.542c-3.431-20.572-21.244-35.641-42.1-35.616H231.08z"/>
</g>
<path style="fill:#9E9E9E;" d="M341.756,230.4c-0.34,0.479-0.711,0.934-1.111,1.366c-2.048,2.56-6.315,8.107-12.117,14.421
	c-6.347,6.952-13.509,13.111-21.333,18.347h-8.533c-1.599-3.089-3.424-6.056-5.462-8.874c-6.912-10.155-20.139-25.259-37.206-25.259
	c-4.413,0.061-8.768,1.019-12.8,2.816c-12.812,7.285-23.198,18.176-29.866,31.317h-8.533c-4.081-2.669-7.96-5.636-11.606-8.874
	c-7.799-7.348-14.963-15.341-21.418-23.893c-0.399-0.43-0.769-0.887-1.11-1.366c-5.846,3.748-10.241,9.376-12.459,15.958
	c-3.279,8.513-4.845,17.59-4.608,26.71c0,29.696,0,72.278,33.706,110.933c5.362,6.15,11.213,11.858,17.493,17.066
	c13.613,10.802,26.524,22.459,38.656,34.902c6.946,6.457,11.464,15.102,12.8,24.491c1.365-15.018,12.288-26.795,51.371-59.392
	c6.282-5.209,12.131-10.916,17.493-17.066c33.706-38.656,33.706-81.237,33.706-110.933C358.823,238.934,341.756,230.4,341.756,230.4
	z"/>
<path style="fill:#F5F5F5;" d="M333.223,273.067c0,29.696,0,72.278-33.707,110.933c-5.362,6.151-11.212,11.859-17.492,17.066
	c-13.61,10.774-26.494,22.432-38.571,34.902c-12.131-12.442-25.043-24.1-38.656-34.902c-6.281-5.209-12.131-10.916-17.493-17.066
	c-33.706-38.656-33.706-81.237-33.706-110.933c-0.237-9.12,1.328-18.196,4.608-26.71c2.218-6.581,6.613-12.209,12.459-15.958
	c0.34,0.478,0.71,0.934,1.11,1.366c6.455,8.553,13.62,16.546,21.418,23.893c3.645,3.239,7.524,6.205,11.606,8.874h8.533
	c6.669-13.142,17.056-24.032,29.866-31.317c4.032-1.797,8.387-2.754,12.8-2.816c17.066,0,30.294,15.104,37.206,25.259
	c2.038,2.819,3.863,5.785,5.462,8.874h8.533c7.823-5.236,14.986-11.395,21.333-18.347
	C331.849,254.751,333.444,263.885,333.223,273.067z"/>
<path d="M256.255,468.992c-4.397,0.002-8.075-3.34-8.492-7.717c-1.125-11.592-10.625-22.125-48.433-53.658
	c-6.627-5.505-12.803-11.533-18.467-18.025c-35.8-41.05-35.8-86.467-35.8-116.526c0-38.3,19.55-49.184,21.783-50.3
	c3.839-1.921,8.508-0.69,10.9,2.875c0.083,0.091,0.558,0.634,0.642,0.733l1.875,2.366c7.656,10.361,16.789,19.546,27.108,27.258
	h0.975c6.275-10.383,23.284-34.133,47.65-34.133s41.376,23.75,47.65,34.133h0.975c10.58-7.894,19.987-17.249,27.942-27.783
	l2.209-2.717c2.482-3.378,7.01-4.524,10.8-2.733c2.234,1.117,21.783,12,21.783,50.3c0,30.058,0,75.475-35.808,116.542
	c-5.666,6.485-11.838,12.51-18.459,18.017c-37.8,31.525-47.291,42.049-48.333,53.6c-0.397,4.388-4.069,7.753-8.475,7.767
	L256.255,468.992z M169.705,242.892c-5.606,9.024-8.254,19.574-7.575,30.175c0,29.15,0,69.075,31.608,105.325
	c5.068,5.807,10.594,11.196,16.525,16.116c16.905,12.805,32.322,27.466,45.959,43.709c13.62-16.247,29.028-30.906,45.933-43.7
	c5.925-4.922,11.448-10.308,16.517-16.108c31.617-36.266,31.617-76.192,31.617-105.342c0.69-10.616-1.975-21.181-7.616-30.2
	c-8.772,11.127-19.182,20.857-30.875,28.858c-1.374,0.876-2.97,1.342-4.6,1.342h-8.533c-3.225-0.003-6.173-1.821-7.625-4.701
	c-4.133-8.192-18.475-29.433-35.042-29.433c-19.775,0-34.883,29.125-35.033,29.416c-1.447,2.89-4.401,4.716-7.633,4.717h-8.533
	c-1.63,0-3.226-0.466-4.6-1.342C188.572,263.787,178.281,254.055,169.705,242.892z"/>
<path d="M256.255,477.867c-4.22,0.001-7.806-3.085-8.434-7.259c-0.465-3.499-0.517-7.039-0.159-10.55v0.008
	c0.207-2.253,1.219-4.356,2.851-5.925c3.493-3.168,8.893-2.905,12.061,0.589c1.423,1.569,2.212,3.61,2.214,5.728
	c0.282,3.228,0.268,6.475-0.041,9.7c-0.414,4.288-3.96,7.595-8.267,7.709L256.255,477.867L256.255,477.867z"/>
<path d="M256.421,479.834c-2.561,0.002-5.002-1.09-6.708-3c-1.683-1.876-2.465-4.393-2.142-6.892l0.091-0.875
	c0.117-1.342,0.497-2.646,1.117-3.842c2.267-4.13,7.452-5.641,11.582-3.375c2.731,1.498,4.429,4.368,4.427,7.484l0.066,0.675
	c0.683,4.694-2.569,9.053-7.263,9.736C257.204,479.801,256.813,479.831,256.421,479.834z"/>
<path style="fill:#37474F;" d="M453.713,481.195l-11.263-35.157c-13.994-37.313-49.664-62.034-89.515-62.038h-27.818
	c-0.084,0.085-0.17,0.171-0.17,0.256c-5.329,6.045-11.121,11.666-17.323,16.811c-39.084,32.598-50.006,44.373-51.371,59.392v0.341
	c0.265,2.838,0.265,5.695,0,8.533v0.426c0.085,1.025,0.171,1.536,0.171,1.536h-0.426c0,0,0.085-0.512,0.171-1.536
	c-0.006-0.147,0.024-0.293,0.085-0.426c-0.349-2.832-0.377-5.695-0.085-8.533c-0.012-0.12,0.018-0.242,0.085-0.341
	c-0.854-9.045-5.207-16.896-17.066-28.928c-7.766-7.851-18.859-17.493-34.39-30.464c-6.281-5.209-12.131-10.916-17.493-17.066
	h-28.247c-1.964,0-3.841,0.085-5.718,0.171c-10.614,0.663-21.048,3.055-30.891,7.082c-24.447,10.167-43.597,29.998-52.906,54.784
	l-11.263,35.157c-2.863,8.992,2.106,18.604,11.099,21.467c1.681,0.535,3.434,0.807,5.199,0.806h362.837
	c9.437,0.008,17.095-7.635,17.103-17.072C454.52,484.63,454.248,482.876,453.713,481.195z"/>
<g>
	<path style="fill:#607D8B;" d="M403.282,503.467H74.578c-9.437,0.008-17.095-7.635-17.104-17.073
		c-0.002-1.764,0.27-3.518,0.806-5.199l11.263-35.157c9.31-24.786,28.46-44.616,52.906-54.784
		c9.843-4.029,20.277-6.421,30.891-7.082c1.877-0.085,3.754-0.171,5.718-0.171h28.246c5.362,6.15,11.213,11.858,17.493,17.066
		c15.531,12.97,26.624,22.613,34.39,30.464c11.861,12.032,16.213,19.883,17.066,28.928c-0.067,0.101-0.097,0.221-0.085,0.341
		c-0.292,2.838-0.263,5.701,0.085,8.533c-0.062,0.134-0.091,0.28-0.085,0.426c-0.085,1.025-0.171,1.536-0.171,1.536h0.426
		c0,0-0.085-0.512-0.171-1.536v-0.426c0.265-2.838,0.265-5.695,0-8.533v-0.341c1.365-15.018,12.288-26.795,51.371-59.392
		c6.202-5.145,11.993-10.766,17.322-16.811c37.534,2.375,70.176,26.564,83.371,61.782l11.263,35.157
		c2.863,8.992-2.106,18.604-11.099,21.467C406.8,503.197,405.047,503.469,403.282,503.467z"/>
	<path style="fill:#607D8B;" d="M256.252,469.334c-0.349-2.832-0.377-5.695-0.085-8.533c-0.012-0.12,0.018-0.242,0.085-0.341v0.341
		C256.519,463.639,256.519,466.495,256.252,469.334z"/>
	<path style="fill:#607D8B;" d="M256.252,469.761c0.085,1.025,0.171,1.536,0.171,1.536h-0.426c0,0,0.085-0.512,0.171-1.536
		c-0.006-0.147,0.024-0.293,0.085-0.426v0.426H256.252z"/>
</g>
<path d="M437.413,512H74.58c-14.153,0.006-25.631-11.461-25.638-25.615c-0.001-2.639,0.405-5.263,1.205-7.777l11.275-35.174
	c15.073-40.887,54.056-68.024,97.633-67.967h28.25c2.472,0,4.823,1.073,6.442,2.942c5.067,5.799,10.59,11.183,16.517,16.1
	c16.934,12.817,32.369,27.504,46.009,43.783c13.56-16.308,28.957-30.997,45.884-43.775c5.925-4.922,11.448-10.308,16.517-16.108
	c1.619-1.869,3.969-2.942,6.442-2.942h27.825c27.627-0.079,54.136,10.901,73.617,30.492c10.494,10.53,18.634,23.167,23.883,37.075
	l11.4,35.558c4.299,13.482-3.144,27.897-16.625,32.196C442.691,511.594,440.061,512.002,437.413,512z M159.055,392.534
	c-36.292,0.001-68.777,22.516-81.517,56.5l-11.134,34.759c-1.425,4.509,1.074,9.319,5.583,10.744
	c0.838,0.264,1.712,0.399,2.591,0.398h362.833c4.726,0.007,8.564-3.818,8.571-8.544c0.001-0.887-0.135-1.768-0.404-2.613
	l-11.258-35.141c-4.392-11.481-11.148-21.91-19.834-30.609c-16.288-16.377-38.452-25.556-61.549-25.491h-24
	c-4.943,5.377-10.238,10.418-15.85,15.092c-37.216,31.033-46.983,41.717-48.284,53.067c0.242,2.937,0.242,5.888,0,8.824l0.05,0.492
	c0.36,2.462-0.367,4.958-1.992,6.842c-3.44,3.627-9.168,3.779-12.794,0.339c-0.121-0.115-0.241-0.234-0.356-0.357
	c-1.683-1.876-2.465-4.393-2.142-6.892l0.075-0.725c-0.275-2.972-0.275-5.961,0-8.933c-1.575-11.225-11.6-22.033-48.317-52.667
	c-5.614-4.668-10.909-9.707-15.85-15.082h-24.422V392.534z"/>
<path d="M121.522,360.642c-4.726-0.06-9.397-1.028-13.758-2.851c-4.372-1.762-6.488-6.733-4.727-11.105
	c1.755-4.354,6.696-6.475,11.06-4.745c4.322,2.453,9.642,2.335,13.85-0.308c12.467-8.45,17.117-41.308,17.117-60.033
	c0-4.713,3.82-8.533,8.533-8.533s8.533,3.82,8.533,8.533c0,5.884-0.692,57.967-24.616,74.159
	C132.8,358.967,127.224,360.67,121.522,360.642z"/>
<path d="M390.471,360.642c-5.702,0.03-11.279-1.673-15.992-4.883c-23.926-16.191-24.617-68.275-24.617-74.159
	c0.002-4.709,3.816-8.527,8.525-8.533h0.008c4.709,0.002,8.527,3.816,8.533,8.525c0.017,18.75,4.683,51.633,17.125,60.042
	c4.204,2.648,9.524,2.767,13.841,0.308c4.38-1.74,9.342,0.4,11.082,4.78c1.735,4.368-0.388,9.317-4.749,11.069
	C399.869,359.615,395.198,360.582,390.471,360.642z"/>
<path d="M255.997,324.267c-11.773-0.137-22.649-6.312-28.8-16.35c-3.458-5.288-5.311-11.465-5.333-17.784
	c-0.003-4.71,3.813-8.531,8.524-8.533c0.003,0,0.006,0,0.01,0h51.2c4.71-0.003,8.531,3.813,8.533,8.524c0,0.003,0,0.006,0,0.01
	c-0.023,6.318-1.875,12.495-5.333,17.784C278.645,317.955,267.769,324.13,255.997,324.267z M241.538,298.667l0.058,0.1
	c4.461,7.952,14.525,10.783,22.477,6.322c2.649-1.486,4.836-3.674,6.322-6.322l0.058-0.1H241.538z"/>
<g>
</g>
<g>
</g>
<g>
</g>
<g>
</g>
<g>
</g>
<g>
</g>
<g>
</g>
<g>
</g>
<g>
</g>
<g>
</g>
<g>
</g>
<g>
</g>
<g>
</g>
<g>
</g>
<g>
</g>
</svg>
