<svg id="Capa_1" enable-background="new 0 0 512 512" height="512" viewBox="0 0 512 512" width="512" xmlns="http://www.w3.org/2000/svg"><g><path d="m18.242 0h73.446v92.193h-73.446z" fill="#6ecef2"/><path d="m18.242 425.114h73.446v86.886h-73.446z" fill="#6ecef2"/><g><path d="m57.558 102.172v307.656h198.442l23.262-153.828-23.262-153.828z" fill="#f6f6f6"/><path d="m256 102.172h198.442v307.657h-198.442z" fill="#dad5f0"/></g><path d="m54.965 112.868-54.965 27.741v230.782l54.965 27.741 54.964-27.741v-230.782z" fill="#143d66"/><path d="m0 63.734h109.929v76.875h-109.929z" fill="#5366ff"/><path d="m0 371.391h109.929v76.875h-109.929z" fill="#5366ff"/><g><path d="m420.313 0h73.446v92.193h-73.446z" fill="#5994ff"/><path d="m420.313 425.114h73.446v86.886h-73.446z" fill="#5994ff"/><path d="m457.036 112.868-54.965 27.741v230.782l54.965 27.741 54.964-27.741v-230.782z" fill="#17294d"/><g fill="#143d66"><path d="m402.071 63.734h109.929v76.875h-109.929z"/><path d="m402.071 371.391h109.929v76.875h-109.929z"/></g></g><g><path d="m243.544 277.574h-24.911l12.456-21.574-12.456-21.574h24.911l12.456-21.573 11.95-24.588-11.95-35.412-29.776 51.573h-59.553l29.777 51.574-29.777 51.574h59.553l29.776 51.573 11.95-31.426-11.95-28.574z" fill="#5994ff"/></g><path d="m345.328 204.426h-59.552l-29.776-51.573v60l12.456 21.573h24.911l-12.455 21.574 12.455 21.574h-24.911l-12.456 21.573v60l29.776-51.573h59.552l-29.776-51.574z" fill="#5366ff"/></g></svg>